{"title":"Hercules and the Amazon Women (1994) DVD RIP","uid":10989705,"size":1396871058,"categoryP":"video","categoryS":"movies","magnet":"?xt=urn:btih:e437b0b33fe4f6ebff947b58be55088af75215d1&amp;dn=Hercules+and+the+Amazon+Women+%281994%29+DVD+RIP&amp;tr=udp%3A%2F%2Ftracker.openbittorrent.com%3A80&amp;tr=udp%3A%2F%2Fopen.demonii.com%3A1337&amp;tr=udp%3A%2F%2Ftracker.coppersurfer.tk%3A6969&amp;tr=udp%3A%2F%2Fexodus.desync.com%3A6969","seeders":3,"leechers":1,"uploader":"jmanwf","files":-1,"time":1409980461,"description":"Storyline\n\nHercules and Iolaus take time out from Iolaus' wedding preparations, to help a distant village under attack from &quot;monsters&quot;. When they reach their destination, they find the monsters are in fact Amazonian women who are controlled by Hera\n\n\nFormat : MPEG-4\nFormat profile : Base Media / Version 2\nCodec ID : mp42\nFile size : 1.30 GiB\nDuration : 1h 30mn\nOverall bit rate : 2 052 Kbps\nEncoded date : UTC 2014-08-29 07:51:55\nTagged date : UTC 2014-08-29 08:28:49\nWriting application : HandBrake 0.9.9 2013052900\n\nVideo\nID : 1\nFormat : AVC\nFormat/Info : Advanced Video Codec\nFormat profile : &lt;a class=&quot;__cf_email__&quot; href=&quot;/cdn-cgi/l/email-protection&quot; data-cfemail=&quot;8ec6e7e9e6cec2baa0bf&quot;&gt;[email&amp;#160;protected]&lt;/a&gt;&lt;script cf-hash='f9e31' type=&quot;text/javascript&quot;&gt;\n/* &lt;![CDATA[ */!function(){try{var t=&quot;currentScript&quot;in document?document.currentScript:function(){for(var t=document.getElementsByTagName(&quot;script&quot;),e=t.length;e--;)if(t[e].getAttribute(&quot;cf-hash&quot;))return t[e]}();if(t&amp;&amp;t.previousSibling){var e,r,n,i,c=t.previousSibling,a=c.getAttribute(&quot;data-cfemail&quot;);if(a){for(e=&quot;&quot;,r=parseInt(a.substr(0,2),16),n=2;a.length-n;n+=2)i=parseInt(a.substr(n,2),16)^r,e+=String.fromCharCode(i);e=document.createTextNode(e),c.parentNode.replaceChild(e,c)}}}catch(u){}}();/* ]]&gt; */&lt;/script&gt;\nFormat settings, CABAC : Yes\nFormat settings, ReFrames : 4 frames\nCodec ID : avc1\nCodec ID/Info : Advanced Video Coding\nDuration : 1h 30mn\nBit rate : 1 600 Kbps\nWidth : 720 pixels\nHeight : 480 pixels\nDisplay aspect ratio : 4:3\nOriginal display aspect ratio : 4:3\nFrame rate mode : Variable\nFrame rate : 26.371 fps\nMinimum frame rate : 19.969 fps\nMaximum frame rate : 59.960 fps\nStandard : NTSC\nColor space : YUV\nChroma subsampling : 4:2:0\nBit depth : 8 bits\nScan type : Progressive\nBits/(Pixel*Frame) : 0.176\nStream size : 1.01 GiB (78%)\nEncoded date : UTC 2014-08-29 07:51:55\nTagged date : UTC 2014-08-29 08:28:49\nColor primaries : BT.601 NTSC\nTransfer characteristics : BT.709\nMatrix coefficients : BT.601\n\nAudio\nID : 2\nFormat : AC-3\nFormat/Info : Audio Coding 3\nMode extension : CM (complete main)\nFormat settings, Endianness : Big\nCodec ID : ac-3\nDuration : 1h 30mn\nBit rate mode : Constant\nBit rate : 448 Kbps\nChannel(s) : 6 channels\nChannel positions : Front: L C R, Side: L R, LFE\nSampling rate : 48.0 KHz\nBit depth : 16 bits\nCompression mode : Lossy\nStream size : 291 MiB (22%)\nLanguage : English\nEncoded date : UTC 2014-08-29 07:51:55\nTagged date : UTC 2014-08-29 08:28:48\n\n\n &lt;a href=&quot;\nhttp://www.imdb.com/title/tt0110015/&quot; rel=&quot;nofollow&quot; target=&quot;_NEW&quot;&gt;\nhttp://www.imdb.com/title/tt0110015/&lt;/a&gt;\n","torrent":{"xt":"urn:btih:e437b0b33fe4f6ebff947b58be55088af75215d1","amp;dn":"Hercules+and+the+Amazon+Women+%281994%29+DVD+RIP","amp;tr":["udp%3A%2F%2Ftracker.openbittorrent.com%3A80","udp%3A%2F%2Fopen.demonii.com%3A1337","udp%3A%2F%2Ftracker.coppersurfer.tk%3A6969","udp%3A%2F%2Fexodus.desync.com%3A6969"],"infoHash":"e437b0b33fe4f6ebff947b58be55088af75215d1","infoHashBuffer":{"type":"Buffer","data":[228,55,176,179,63,228,246,235,255,148,123,88,190,85,8,138,247,82,21,209]},"announce":[],"urlList":[]}}